Coordinates
version=1
nRows=13
nColumns=40
inDegrees=yes

Units are S.I. units (second, meters, Newtons, ...)
Angles are in degrees.

endheader
time	pelvis_tilt	pelvis_list	pelvis_rotation	pelvis_tx	pelvis_ty	pelvis_tz	hip_flexion_r	hip_adduction_r	hip_rotation_r	knee_angle_r	knee_angle_r_beta	ankle_angle_r	subtalar_angle_r	mtp_angle_r	hip_flexion_l	hip_adduction_l	hip_rotation_l	knee_angle_l	knee_angle_l_beta	ankle_angle_l	subtalar_angle_l	mtp_angle_l	lumbar_extension	lumbar_bending	lumbar_rotation	arm_flex_r	arm_add_r	arm_rot_r	elbow_flex_r	pro_sup_r	wrist_flex_r	wrist_dev_r	arm_flex_l	arm_add_l	arm_rot_l	elbow_flex_l	pro_sup_l	wrist_flex_l	wrist_dev_l
      4.25500000	     -3.60725399	     -4.06040396	     -1.36163798	      0.81666373	      0.93352795	      0.41049551	     33.38988897	     -3.83630984	     -6.16854449	     57.30739405	     57.30739405	      2.25341062	    -15.24198996	      1.21879586	     11.86000024	     -3.62282880	     -7.87821741	     19.86774546	     19.86774546	     13.28982722	    -13.71999251	     -0.33225011	     -9.05343116	      5.21163356	      3.29328923	     17.77271309	    -10.53035103	     -2.68961132	     29.20415617	     46.75262143	      0.00000000	      0.00000000	     40.92720661	    -14.56821243	      9.12723682	    105.21592880	     48.01936154	      0.00000000	      0.00000000
      4.26685714	     -3.69965846	     -4.12388454	     -1.64268595	      0.81597786	      0.93370740	      0.41075069	     33.54341154	     -3.61531583	     -6.50680735	     54.10522685	     54.10522685	      2.48233730	    -14.70897193	      1.39414248	     11.22476877	     -3.69294412	     -8.16063391	     19.42154912	     19.42154912	     13.52360051	    -13.55198908	     -0.36478684	     -9.15931513	      5.30393731	      3.40494572	     16.89541059	    -10.85520882	     -2.74414492	     28.65808796	     46.76392852	      0.00000000	      0.00000000	     42.27979575	    -14.55325651	      8.67412627	    106.36405675	     48.08791652	      0.00000000	      0.00000000
      4.27871429	     -3.98966719	     -4.17857965	     -1.88374950	      0.81521133	      0.93348218	      0.41109321	     33.78274808	     -3.40159784	     -6.94337395	     50.63450479	     50.63450479	      2.72477403	    -13.96463106	      1.64181179	     10.86360460	     -3.76418792	     -8.37920956	     19.06360764	     19.06360764	     13.75570857	    -13.40121532	     -0.42459354	     -9.01546797	      5.40956004	      3.34813201	     16.09911144	    -11.04833079	     -2.75167262	     28.35453801	     46.76702306	      0.00000000	      0.00000000	     43.55951888	    -14.81544546	      8.21758246	    107.12344644	     48.13948660	      0.00000000	      0.00000000
      4.29057143	     -3.99066708	     -4.29723939	     -2.14234891	      0.81484151	      0.93375352	      0.41149587	     33.42443199	     -3.10570024	     -7.52541998	     46.70322793	     46.70322793	      2.92026407	    -12.92055636	      1.62447649	     10.07437035	     -3.90416568	     -8.70701165	     18.56313480	     18.56313480	     13.97398938	    -13.06650574	     -0.53639522	     -9.23040114	      5.57838763	      3.41335948	     15.41034550	    -11.42450213	     -2.71568696	     28.21797342	     46.75715577	      0.00000000	      0.00000000	     44.42960317	    -14.79659297	      7.74636662	    108.45007395	     48.20703383	      0.00000000	      0.00000000
      4.30242857	     -4.17952521	     -4.32305967	     -2.38921293	      0.81453956	      0.93351711	      0.41203930	     33.09362922	     -2.85563036	     -8.14351197	     42.44174845	     42.44174845	      2.45535229	    -11.93840508	     -0.28581343	      9.51161414	     -3.97281455	     -9.12452643	     18.10169882	     18.10169882	     14.12602980	    -12.65259104	     -1.06232349	     -9.22228822	      5.63888209	      3.00729437	     14.61346956	    -11.69921590	     -2.00754154	     29.25522975	     46.61732254	      0.00000000	      0.00000000	     44.82747401	    -15.19618366	      6.62522236	    110.26886847	     48.36293695	      0.00000000	      0.00000000
      4.31428571	     -4.55191318	     -4.25119104	     -2.64933031	      0.81416750	      0.93288448	      0.41280328	     32.95723016	     -2.57847442	     -8.61707722	     38.22315215	     38.22315215	      2.60398561	    -10.73969778	      0.11321051	      9.23544669	     -3.92521177	     -9.40812478	     17.77881834	     17.77881834	     14.29997283	    -12.63753414	     -1.12169792	     -8.89438610	      5.52292487	      2.95713458	     14.03634635	    -11.80173118	     -1.93237430	     29.16874991	     46.60778171	      0.00000000	      0.00000000	     45.68126044	    -15.42252304	      6.37044487	    110.63860688	     48.39495098	      0.00000000	      0.00000000
      4.32614286	     -4.64105294	     -4.40232801	     -2.84339739	      0.81430015	      0.93266960	      0.41362062	     32.16150407	     -2.11826404	     -9.46056653	     33.62886095	     33.62886095	      2.83389190	     -8.89126151	      0.38566814	      8.51246026	     -4.09764096	     -9.56232236	     17.27875969	     17.27875969	     14.56630925	    -12.36611279	     -1.25768917	     -8.89960686	      5.71477938	      2.94542952	     13.48144088	    -12.10183043	     -1.81849377	     29.39243969	     46.58063031	      0.00000000	      0.00000000	     46.09801289	    -15.51206677	      6.14466687	    111.14280027	     48.42767678	      0.00000000	      0.00000000
      4.33800000	     -4.74885679	     -4.35170211	     -3.03648077	      0.81459559	      0.93216327	      0.41448501	     31.34521932	     -1.81315250	    -10.26857356	     29.11454760	     29.11454760	      2.97374645	     -6.85114820	      0.70696302	      7.84353061	     -4.06713782	     -9.87549938	     16.84967490	     16.84967490	     14.81024255	    -12.05324144	     -1.47860791	     -8.84791301	      5.67107891	      2.87702154	     12.88608219	    -12.32584439	     -1.65339619	     29.95322989	     46.53393004	      0.00000000	      0.00000000	     46.34625419	    -15.63646337	      5.85194437	    111.60188454	     48.46385087	      0.00000000	      0.00000000
      4.34985714	     -4.88107420	     -4.27197856	     -3.22060922	      0.81515049	      0.93134936	      0.41552058	     30.51163326	     -1.47864901	    -11.07426481	     24.78379400	     24.78379400	      3.07689980	     -4.81048649	      1.23348742	      7.20187817	     -4.01325885	    -10.17212387	     16.45668558	     16.45668558	     15.09565208	    -11.77132820	     -1.74517721	     -8.67499029	      5.57529575	      2.79308532	     12.31614060	    -12.45861548	     -1.46255771	     30.70676621	     46.47785296	      0.00000000	      0.00000000	     46.43893387	    -15.78786935	      5.57761743	    111.91146234	     48.49447066	      0.00000000	      0.00000000
      4.36171429	     -4.86306313	     -4.09539761	     -3.37916553	      0.81606774	      0.93043391	      0.41652736	     29.58311248	     -1.37345594	    -12.35857659	     20.98889663	     20.98889663	      3.50421230	     -1.78246377	      2.25939924	      6.35935820	     -3.87811785	    -10.70260352	     16.02811737	     16.02811737	     15.29885557	    -11.12386094	     -2.64135064	     -8.73950498	      5.40226481	      2.84626284	     10.49598793	    -13.23369388	      0.09527939	     35.04355840	     46.14941096	      0.00000000	      0.00000000	     46.25081131	    -15.69324333	      4.98218977	    112.41694419	     48.57823632	      0.00000000	      0.00000000
      4.37357143	     -4.91524169	     -4.02202759	     -3.50433229	      0.81706975	      0.92931424	      0.41788207	     28.70379032	     -0.92244597	    -12.92561220	     17.42940750	     17.42940750	      3.49309959	     -0.35786397	      3.35296863	      5.67654619	     -3.82606147	    -10.80519221	     15.76188693	     15.76188693	     15.62285736	    -11.08159270	     -2.82762500	     -8.57814331	      5.28672047	      2.81133251	     10.09156261	    -13.35030353	      0.43146807	     35.62073677	     46.09781616	      0.00000000	      0.00000000	     46.07993745	    -15.83959813	      5.03234827	    112.16096101	     48.57609153	      0.00000000	      0.00000000
      4.38542857	     -4.91698440	     -3.87206066	     -3.63146772	      0.81833457	      0.92805588	      0.41924626	     28.07285562	     -0.75607844	    -14.00485382	     14.99760233	     14.99760233	      4.44662458	      2.01742359	      6.56800214	      4.90395482	     -3.72067011	    -11.15454130	     15.46689110	     15.46689110	     15.95664613	    -10.66612153	     -3.34634533	     -8.48578560	      5.11323118	      3.06632532	      8.64599913	    -14.09720243	      2.18486959	     39.11633365	     45.82363618	      0.00000000	      0.00000000	     45.83943611	    -15.65121218	      5.01626494	    111.79698025	     48.61086199	      0.00000000	      0.00000000
      4.39728571	     -5.01182595	     -3.69611991	     -3.72632725	      0.81971632	      0.92651252	      0.42082374	     27.57053847	     -0.49065496	    -14.30581767	     12.93847687	     12.93847687	      4.29075161	      2.76304355	      7.19527626	      4.32790850	     -3.58520316	    -11.24440226	     15.35212945	     15.35212945	     16.37110779	    -10.66391311	     -3.47990031	     -8.16414736	      4.87588019	      2.95929772	      8.48186770	    -13.99776222	      2.30802392	     39.44071913	     45.80140436	      0.00000000	      0.00000000	     45.22715326	    -15.77726235	      5.09293320	    111.42178953	     48.59771692	      0.00000000	      0.00000000
